<svg xmlns="http://www.w3.org/2000/svg" height="64" width="256"><path d="M16 32C7.164 32 0 39.164 0 48c0 8.837 7.164 16 16 16 8.837 0 16-7.163 16-16 0-8.836-7.163-16-16-16zm7.944 12.809c-.251 6.516-3.463 10.832-10.992 10.702h-.486c-.447 0-4.543-.443-5.344-1.823 2.479.19 4.247-.406 5.12-1.136-1.048-.289-2.923-.461-3.251-2.848.384.104.618.221 1.299.113-1.307-.824-2.758-1.519-2.679-3.643.311.317 1.164.518 1.46.457-.768-.233-2.149-3.244-.974-4.781 1.984 1.79 4.075 3.482 7.804 3.643.227-2.214 1.24-3.699 3.168-4.325 1.84-.479 3.255.26 3.901 1.138.737-.224 1.453-.466 2.193-.685-.004.833-.569 1.463-.935 1.709.747.165 1.423-.475 1.423-.475-.184.963-1.094 1.725-1.707 1.954z" fill="#fff"/><path d="M48 32c-8.836 0-16 7.164-16 16 0 8.837 7.164 16 16 16 8.837 0 16-7.163 16-16 0-8.836-7.163-16-16-16zm7.944 12.809c-.251 6.516-3.463 10.832-10.992 10.702h-.486c-.447 0-4.543-.443-5.344-1.823 2.479.19 4.247-.406 5.12-1.136-1.048-.289-2.923-.461-3.251-2.848.384.104.618.221 1.299.113-1.307-.824-2.758-1.519-2.679-3.643.311.317 1.164.518 1.46.457-.768-.233-2.149-3.244-.974-4.781 1.984 1.79 4.075 3.482 7.804 3.643.227-2.214 1.24-3.699 3.168-4.325 1.84-.479 3.255.26 3.901 1.138.737-.224 1.453-.466 2.193-.685-.004.833-.569 1.463-.935 1.709.747.165 1.423-.475 1.423-.475-.184.963-1.094 1.725-1.707 1.954z" fill="#e9e9e9"/><g fill="#fff"><path d="M84.916 48a4.938 4.938 0 1 1-9.877 0c0-.394.051-.773.138-1.14h-.897v6.838h11.396V46.86h-.897c.086.367.137.746.137 1.14z"/><path d="M79.978 50.659A2.662 2.662 0 0 0 82.637 48a2.662 2.662 0 0 0-2.659-2.659A2.662 2.662 0 0 0 77.319 48a2.662 2.662 0 0 0 2.659 2.659zm2.659-8.357h3.039v3.039h-3.039z"/><path d="M80 32c-8.836 0-16 7.164-16 16 0 8.837 7.164 16 16 16 8.837 0 16-7.163 16-16 0-8.836-7.163-16-16-16zm7.955 21.698a2.285 2.285 0 0 1-2.279 2.279H74.279A2.285 2.285 0 0 1 72 53.698V42.302a2.286 2.286 0 0 1 2.279-2.279h11.396a2.286 2.286 0 0 1 2.279 2.279v11.396z"/></g><g fill="#e9e9e9"><path d="M116.916 48a4.938 4.938 0 1 1-9.877 0c0-.394.051-.773.138-1.14h-.897v6.838h11.396V46.86h-.897c.086.367.137.746.137 1.14z"/><path d="M111.978 50.659A2.662 2.662 0 0 0 114.637 48a2.662 2.662 0 0 0-2.659-2.659A2.662 2.662 0 0 0 109.319 48a2.662 2.662 0 0 0 2.659 2.659zm2.659-8.357h3.039v3.039h-3.039z"/><path d="M112 32c-8.836 0-16 7.164-16 16 0 8.837 7.164 16 16 16 8.837 0 16-7.163 16-16 0-8.836-7.163-16-16-16zm7.955 21.698a2.285 2.285 0 0 1-2.279 2.279h-11.397A2.285 2.285 0 0 1 104 53.698V42.302a2.286 2.286 0 0 1 2.279-2.279h11.396a2.286 2.286 0 0 1 2.279 2.279v11.396z"/></g><path d="M144 32c-8.836 0-16 7.163-16 16s7.164 16 16 16c8.837 0 16-7.164 16-16s-7.163-16-16-16zm4.062 9.455h-3.021v3.444h3.021v3.445h-3.021v8.61h-3.021v-8.61H139v-3.445h3.021v-3.444c0-1.902 1.353-3.445 3.021-3.445h3.021v3.445z" fill="#fff"/><path d="M176 32c-8.836 0-16 7.163-16 16s7.164 16 16 16c8.837 0 16-7.164 16-16s-7.163-16-16-16zm4.062 9.455h-3.021v3.444h3.021v3.445h-3.021v8.61h-3.021v-8.61H171v-3.445h3.021v-3.444c0-1.902 1.353-3.445 3.021-3.445h3.021v3.445z" fill="#e9e9e9"/><g fill="#fff"><path d="M208.637 46.495c.402-.019.719-.082.951-.188.326-.145.54-.33.641-.559.101-.229.15-.496.15-.797 0-.232-.058-.465-.174-.697-.116-.232-.322-.405-.617-.517-.264-.1-.592-.155-.984-.165a76.242 76.242 0 0 0-1.652-.014h-.339v2.965h.565c.571 0 1.057-.009 1.459-.028zm1.481 2.589c-.282-.081-.672-.125-1.166-.132a127.97 127.97 0 0 0-1.55-.009h-.79v3.493h.264c1.014 0 1.74-.003 2.18-.009a3.2 3.2 0 0 0 1.212-.245c.377-.157.633-.364.774-.625.141-.261.214-.562.214-.9 0-.446-.088-.788-.261-1.03-.17-.241-.464-.423-.877-.543z"/><path d="M208 32c-8.836 0-16 7.164-16 16 0 8.837 7.164 16 16 16 8.837 0 16-7.163 16-16 0-8.836-7.163-16-16-16zm6.602 20.531a3.73 3.73 0 0 1-1.124 1.327 5.255 5.255 0 0 1-1.823.886c-.662.176-1.501.264-2.519.264h-6.121V40.987h5.443c1.13 0 1.957.038 2.48.113a5.126 5.126 0 0 1 1.561.5c.533.27.929.632 1.189 1.087.26.455.392.975.392 1.558 0 .678-.179 1.278-.536 1.795-.358.518-.863.92-1.517 1.208v.075c.917.182 1.642.559 2.179 1.13.537.571.807 1.325.807 2.261 0 .678-.138 1.283-.411 1.817z"/></g><g fill="#e9e9e9"><path d="M240.637 46.495c.402-.019.719-.082.951-.188.326-.145.54-.33.641-.559.101-.229.15-.496.15-.797 0-.232-.058-.465-.174-.697-.116-.232-.322-.405-.617-.517-.264-.1-.592-.155-.984-.165a76.242 76.242 0 0 0-1.652-.014h-.339v2.965h.565c.571 0 1.057-.009 1.459-.028zm1.481 2.589c-.282-.081-.672-.125-1.166-.132a127.97 127.97 0 0 0-1.55-.009h-.79v3.493h.264c1.014 0 1.74-.003 2.18-.009a3.2 3.2 0 0 0 1.212-.245c.377-.157.633-.364.774-.625.141-.261.214-.562.214-.9 0-.446-.088-.788-.261-1.03-.17-.241-.464-.423-.877-.543z"/><path d="M240 32c-8.836 0-16 7.164-16 16 0 8.837 7.164 16 16 16 8.837 0 16-7.163 16-16 0-8.836-7.163-16-16-16zm6.602 20.531a3.73 3.73 0 0 1-1.124 1.327 5.255 5.255 0 0 1-1.823.886c-.662.176-1.501.264-2.519.264h-6.121V40.987h5.443c1.13 0 1.957.038 2.48.113a5.126 5.126 0 0 1 1.561.5c.533.27.929.632 1.189 1.087.26.455.392.975.392 1.558 0 .678-.179 1.278-.536 1.795-.358.518-.863.92-1.517 1.208v.075c.917.182 1.642.559 2.179 1.13.537.571.807 1.325.807 2.261 0 .678-.138 1.283-.411 1.817z"/></g><path d="M16.958 15.527L11.75 10.32A6.455 6.455 0 0 0 13 6.5 6.5 6.5 0 1 0 6.5 13a6.465 6.465 0 0 0 3.839-1.263l5.205 5.204 1.414-1.414zM6.5 11A4.505 4.505 0 0 1 2 6.5C2 4.019 4.019 2 6.5 2S11 4.019 11 6.5 8.981 11 6.5 11z" fill="#fff"/><path d="M48.958 15.527L43.75 10.32A6.455 6.455 0 0 0 45 6.5a6.5 6.5 0 1 0-6.5 6.5 6.465 6.465 0 0 0 3.839-1.263l5.205 5.204 1.414-1.414zM38.5 11A4.505 4.505 0 0 1 34 6.5C34 4.019 36.019 2 38.5 2S43 4.019 43 6.5 40.981 11 38.5 11z"/><g fill="#fff"><path d="M70.042 14.875L76.959 9.5l-6.917-5.375v2.917H64v4.917h6.042z"/><path d="M82.042 0h-13c-1.1 0-2 .9-2 2v2h2V2h13v15h-13v-2h-2v2c0 1.1.9 2 2 2h13c1.1 0 2-.9 2-2V2c0-1.1-.9-2-2-2z"/></g><path d="M102.042 14.875l6.917-5.375-6.917-5.375v2.917H96v4.917h6.042z"/><path d="M114.042 0h-13c-1.1 0-2 .9-2 2v2h2V2h13v15h-13v-2h-2v2c0 1.1.9 2 2 2h13c1.1 0 2-.9 2-2V2c0-1.1-.9-2-2-2z"/><g transform="translate(128)" fill="#fff"><path d="M5.657 2.031L5.422 0H0v2h3.64l1.5 13h13.988l1.699-12.969H5.657zM17.372 13H6.922L5.888 4.031h12.66L17.372 13z"/><circle r="2" cy="18" cx="6.984"/><circle r="2" cy="18" cx="15.984"/></g><g transform="translate(2.05 57.987)"><path fill="#e84d37" d="M176.498-53.956h-12.66l1.034 8.97h10.45z"/><circle cx="164.934" cy="-39.987" r="2" fill="#343434"/><circle cx="173.934" cy="-39.987" r="2" fill="#343434"/><path d="M163.607-55.956l-.235-2.03h-5.422v2h3.64l1.5 13h13.988l1.699-12.97h-15.17zm11.715 10.97h-10.45l-1.034-8.97h12.66l-1.176 8.97z" fill="#343434"/></g></svg>